<svg xmlns="http://www.w3.org/2000/svg" viewBox="0 0 500 500"><g id="freepik--background-complete--inject-14"><path d="M85.57,307.17l-13.12.28-6.66.11c-2.23.05-4.47,0-6.7.06h-.44v-.45L58.59,296v-.5h.5l13.24.06c4.41,0,8.83.12,13.24.17h.28V296c0,1.9-.08,3.79-.13,5.66Zm0,0-.14-5.65c-.05-1.87-.11-3.71-.13-5.54l.27.27c-4.41.06-8.83.16-13.24.17l-13.24.06.5-.5-.05,11.19-.45-.44c2.18,0,4.36,0,6.55,0l6.58.11Z" style="fill:#ebebeb"></path><rect x="44.32" y="310.09" width="26.48" height="11.19" style="fill:#ebebeb"></rect><path d="M154.33,198.57l-13.12.28-6.66.11c-2.23,0-4.47,0-6.7,0h-.44v-.45l-.06-11.19v-.5h.5l13.24.06c4.42,0,8.83.11,13.24.17h.28v.27c0,1.9-.09,3.78-.14,5.65Zm0,0-.14-5.66c0-1.86-.11-3.7-.13-5.53l.27.27c-4.41,0-8.82.16-13.24.16l-13.24.07.5-.5,0,11.19-.45-.45c2.18,0,4.36,0,6.55.06l6.58.11Z" style="fill:#ebebeb"></path><rect x="113.08" y="201.49" width="26.48" height="11.19" style="fill:#ebebeb"></rect><path d="M355.44,136.19l-13.13.28-6.66.11c-2.22,0-4.46,0-6.69.06h-.45v-.45L328.46,125v-.5h.5l13.24.06c4.41,0,8.82.12,13.24.17h.27V125c0,1.9-.08,3.79-.13,5.65Zm0,0-.14-5.65c-.05-1.87-.12-3.71-.13-5.54l.27.27c-4.42,0-8.83.16-13.24.17L329,125.5l.5-.5-.06,11.19-.44-.45c2.18,0,4.36,0,6.54.06l6.58.11Z" style="fill:#ebebeb"></path><path d="M124.85,198.57l-13.13.28-6.66.11c-2.22,0-4.46,0-6.69,0h-.45v-.45l0-11.19v-.5h.51l13.24.06c4.41,0,8.82.11,13.24.17h.27v.27c0,1.9-.09,3.78-.13,5.65Zm0,0-.14-5.66c0-1.86-.12-3.7-.14-5.53l.28.27c-4.42,0-8.83.16-13.24.16l-13.24.07.5-.5-.06,11.19-.44-.45c2.18,0,4.35,0,6.54.06l6.58.11Z" style="fill:#ebebeb"></path><path d="M436.32,268.08l-13.12.28-6.66.11c-2.23,0-4.47,0-6.7,0h-.44v-.45l-.06-11.19v-.5h.5l13.24.06c4.42,0,8.83.11,13.24.16h.28v.27c0,1.9-.09,3.78-.13,5.65Zm0,0-.14-5.66c0-1.86-.11-3.7-.13-5.53l.27.27c-4.41,0-8.82.16-13.24.16l-13.24.07.5-.5,0,11.19-.45-.45c2.18,0,4.36,0,6.55.06l6.58.11Z" style="fill:#ebebeb"></path><rect x="422.08" y="271.87" width="26.48" height="11.19" style="fill:#ebebeb"></rect><path d="M440.91,66.89l-13.13.28-6.66.11c-2.22,0-4.46,0-6.69,0H414v-.45l-.05-11.19v-.5h.5l13.24.06c4.41,0,8.83.11,13.24.17h.27v.27c0,1.9-.08,3.79-.13,5.65Zm0,0-.14-5.66c0-1.86-.11-3.7-.13-5.53l.27.27c-4.41.05-8.83.16-13.24.17l-13.24.06.5-.5-.06,11.19-.44-.45c2.18,0,4.36,0,6.54.06l6.58.11Z" style="fill:#ebebeb"></path><rect x="429.2" y="69.81" width="26.48" height="11.19" style="fill:#ebebeb"></rect><rect x="44.32" y="55.7" width="26.48" height="11.19" style="fill:#ebebeb"></rect><polygon points="139.93 358.17 42.76 358.17 38.84 280.86 143.85 280.86 139.93 358.17" style="fill:#ebebeb"></polygon><path d="M50.36,289.41h82l-1.48,26.84H52.08Zm81,.95h-80L53,315.3h77Z" style="fill:#c7c7c7"></path><path d="M52,322.9h77l-1.21,24.22H53.54Zm76,1H53l1.4,22.32h72.43Z" style="fill:#c7c7c7"></path><path d="M83.05,299.26H98l-.84,6.48H83.88Zm13.82.95H84.13l.59,4.57H96.28Z" style="fill:#c7c7c7"></path><path d="M83.05,331.77H98l-.84,6.48H83.88Zm13.82,1H84.13l.59,4.58H96.28Z" style="fill:#c7c7c7"></path><polygon points="123.04 358.17 124.22 366.59 126.6 383.51 131.25 383.51 131.25 358.17 123.04 358.17" style="fill:#ebebeb"></polygon><polygon points="123.04 358.17 124.22 366.59 131.25 366.59 131.25 358.17 123.04 358.17" style="fill:#c7c7c7"></polygon><polygon points="59.65 358.17 58.47 366.59 56.09 383.51 51.44 383.51 51.44 358.17 59.65 358.17" style="fill:#ebebeb"></polygon><polygon points="59.65 358.17 58.47 366.59 51.44 366.59 51.44 358.17 59.65 358.17" style="fill:#c7c7c7"></polygon><polygon points="153.01 130.56 116.57 158.34 80.92 111.56 107.97 90.94 117.36 83.78 124.15 92.7 153.01 130.56" style="fill:#ebebeb"></polygon><rect x="87.09" y="105.23" width="37.33" height="1.51" transform="translate(254.11 126.17) rotate(142.68)" style="fill:#dbdbdb"></rect><rect x="89.4" y="108.26" width="37.33" height="1.51" transform="translate(260.1 130.21) rotate(142.68)" style="fill:#dbdbdb"></rect><rect x="91.71" y="111.29" width="37.33" height="1.51" transform="translate(266.08 134.25) rotate(142.68)" style="fill:#dbdbdb"></rect><rect x="94.02" y="114.33" width="37.33" height="1.51" transform="translate(272.07 138.29) rotate(142.68)" style="fill:#dbdbdb"></rect><rect x="96.34" y="117.36" width="37.33" height="1.51" transform="matrix(-0.8, 0.61, -0.61, -0.8, 278.06, 142.33)" style="fill:#dbdbdb"></rect><rect x="98.65" y="120.39" width="37.33" height="1.51" transform="translate(284.05 146.38) rotate(142.68)" style="fill:#dbdbdb"></rect><rect x="100.96" y="123.42" width="37.33" height="1.51" transform="translate(290.03 150.42) rotate(142.68)" style="fill:#dbdbdb"></rect><rect x="103.27" y="126.45" width="37.33" height="1.51" transform="translate(296.02 154.46) rotate(142.68)" style="fill:#dbdbdb"></rect><rect x="105.58" y="129.49" width="37.33" height="1.51" transform="translate(302.01 158.5) rotate(142.68)" style="fill:#dbdbdb"></rect><rect x="107.89" y="132.52" width="37.33" height="1.51" transform="translate(307.99 162.54) rotate(142.68)" style="fill:#dbdbdb"></rect><rect x="110.2" y="135.55" width="37.33" height="1.51" transform="translate(313.98 166.59) rotate(142.68)" style="fill:#dbdbdb"></rect><rect x="112.51" y="138.58" width="37.33" height="1.51" transform="matrix(-0.8, 0.61, -0.61, -0.8, 319.97, 170.63)" style="fill:#dbdbdb"></rect><polygon points="172.82 145.08 127.42 151.24 119.5 92.96 153.22 88.38 166.41 97.9 172.82 145.08" style="fill:#ebebeb"></polygon><polygon points="153.22 88.38 166.41 97.9 154.72 99.49 153.22 88.38" style="fill:#dbdbdb"></polygon><rect x="125.25" y="100.42" width="25.47" height="1.51" transform="matrix(-0.99, 0.13, -0.13, -0.99, 288.33, 182.86)" style="fill:#dbdbdb"></rect><rect x="125.76" y="104.19" width="25.47" height="1.51" transform="translate(289.85 190.31) rotate(172.27)" style="fill:#dbdbdb"></rect><rect x="126.27" y="107.97" width="25.47" height="1.51" transform="matrix(-0.99, 0.13, -0.13, -0.99, 291.38, 197.76)" style="fill:#dbdbdb"></rect><rect x="126.73" y="110.95" width="37.33" height="1.51" transform="translate(304.5 202.84) rotate(172.27)" style="fill:#dbdbdb"></rect><rect x="127.24" y="114.73" width="37.33" height="1.51" transform="translate(306.02 210.29) rotate(172.27)" style="fill:#dbdbdb"></rect><rect x="127.76" y="118.51" width="37.33" height="1.51" transform="translate(307.55 217.74) rotate(172.27)" style="fill:#dbdbdb"></rect><rect x="128.27" y="122.28" width="37.33" height="1.51" transform="translate(309.08 225.19) rotate(172.27)" style="fill:#dbdbdb"></rect><rect x="128.78" y="126.06" width="37.33" height="1.51" transform="translate(310.61 232.64) rotate(172.27)" style="fill:#dbdbdb"></rect><rect x="129.3" y="129.84" width="37.33" height="1.51" transform="translate(312.14 240.1) rotate(172.27)" style="fill:#dbdbdb"></rect><rect x="129.81" y="133.62" width="37.33" height="1.51" transform="translate(313.67 247.55) rotate(172.27)" style="fill:#dbdbdb"></rect><rect x="130.32" y="137.39" width="37.33" height="1.51" transform="translate(315.2 255) rotate(172.27)" style="fill:#dbdbdb"></rect><rect x="130.83" y="141.17" width="37.33" height="1.51" transform="translate(316.73 262.45) rotate(172.27)" style="fill:#dbdbdb"></rect><circle cx="383.31" cy="90.99" r="37.64" transform="translate(232.78 455.06) rotate(-80.89)" style="fill:#ebebeb"></circle><circle cx="385.03" cy="91.83" r="35.91" transform="translate(-9.68 62.15) rotate(-9.11)" style="fill:#dbdbdb"></circle><circle cx="385.03" cy="91.83" r="33.64" transform="translate(72.65 334.93) rotate(-51.3)" style="fill:#fff"></circle><path d="M417.92,84.69c-15.33,9.28-40.51,24.51-54.58,32.86a33.63,33.63,0,0,1-9.19-12.37L400.69,62A33.73,33.73,0,0,1,417.92,84.69Z" style="fill:#ebebeb;opacity:0.5"></path><path d="M418.65,93a33,33,0,0,1-2.22,10.93l-42,19.85a32.81,32.81,0,0,1-5.3-2.28C381.84,114.18,405,100.85,418.65,93Z" style="fill:#ebebeb;opacity:0.5"></path><rect x="384.71" y="60.62" width="0.65" height="5.1" style="fill:#c7c7c7"></rect><rect x="370.38" y="64.46" width="0.65" height="5.1" transform="translate(16.15 194.32) rotate(-30)" style="fill:#c7c7c7"></rect><rect x="359.89" y="74.95" width="0.65" height="5.1" transform="translate(112.97 350.69) rotate(-60)" style="fill:#c7c7c7"></rect><rect x="353.83" y="91.5" width="5.1" height="0.65" style="fill:#c7c7c7"></rect><rect x="357.67" y="105.83" width="5.1" height="0.65" transform="translate(-4.82 194.31) rotate(-30)" style="fill:#c7c7c7"></rect><rect x="368.16" y="116.32" width="5.1" height="0.65" transform="translate(84.52 379.56) rotate(-60.04)" style="fill:#c7c7c7"></rect><rect x="384.71" y="117.93" width="0.65" height="5.1" style="fill:#c7c7c7"></rect><rect x="399.03" y="114.09" width="0.65" height="5.1" transform="translate(-4.82 215.31) rotate(-30)" style="fill:#c7c7c7"></rect><rect x="409.52" y="103.6" width="0.65" height="5.1" transform="translate(112.97 407.99) rotate(-60)" style="fill:#c7c7c7"></rect><rect x="411.14" y="91.5" width="5.1" height="0.65" style="fill:#c7c7c7"></rect><rect x="407.3" y="77.18" width="5.1" height="0.65" transform="translate(16.17 215.33) rotate(-30)" style="fill:#c7c7c7"></rect><rect x="396.81" y="66.69" width="5.1" height="0.65" transform="translate(141.82 379.5) rotate(-60.03)" style="fill:#c7c7c7"></rect><polygon points="385.52 62.93 386.63 94.1 383.44 94.06 384.66 62.92 385.52 62.93" style="fill:#c7c7c7"></polygon><polygon points="404.93 80.96 383.97 94.34 382.44 91.54 404.52 80.2 404.93 80.96" style="fill:#a6a6a6"></polygon><path d="M386.12,91.83A1.09,1.09,0,1,1,385,90.74,1.09,1.09,0,0,1,386.12,91.83Z" style="fill:#c7c7c7"></path></g><g id="freepik--Shadows--inject-14"><ellipse cx="250" cy="434.43" rx="163.03" ry="20.36" style="fill:#ebebeb"></ellipse></g><g id="freepik--Floor--inject-14"><polygon points="40.8 383.79 93.1 383.55 145.4 383.46 250 383.29 354.6 383.46 406.9 383.55 459.19 383.79 406.9 384.03 354.6 384.12 250 384.29 145.4 384.12 93.1 384.03 40.8 383.79" style="fill:#263238"></polygon></g><g id="freepik--Plant--inject-14"><path d="M414.82,229.56s-21.67-3-16.61-29.2C398.21,200.36,422.43,205.8,414.82,229.56Z" style="fill:#6C63FF"></path><path d="M414.82,229.56s-21.67-3-16.61-29.2C398.21,200.36,422.43,205.8,414.82,229.56Z" style="opacity:0.1"></path><path d="M413.73,224.09c-.43-1.32-.93-2.62-1.48-3.89l-.06-.5-.09-1.08q-.09-1.17-.15-2.34c-.09-1.57-.19-3.13-.22-4.7,0-.08-.13-.08-.13,0,0,1.56,0,3.13,0,4.69,0,.79.08,1.57.13,2.35,0,.17,0,.35,0,.52a46,46,0,0,0-4.35-7.43c-.74-1-1.53-2-2.37-3s-1.77-1.93-2.65-2.9c-.05-.07-.15,0-.09.09a39.71,39.71,0,0,1,4.18,5.55c.66,1,1.28,2,1.87,3.06l-.2-.08-.77-.31-1.77-.67c-1.17-.43-2.33-.85-3.49-1.29-.07,0-.12.09,0,.12,1.15.46,2.29.94,3.43,1.43l1.68.73.85.35a3,3,0,0,0,.57.2c.44.78.87,1.57,1.27,2.37a57.11,57.11,0,0,1,2.65,6.25c.05.15.1.3.16.45a13.21,13.21,0,0,0-1.78-.86l-2.24-1c-1.52-.7-3-1.41-4.49-2.23-.07,0-.14.07-.06.11,1.49.82,2.95,1.68,4.44,2.49.74.41,1.49.8,2.26,1.17a7.15,7.15,0,0,0,2,.82,25.37,25.37,0,0,1,1.42,6.14c.24,3,.22,5.94.29,8.91,0,0,.07,0,.08,0,.21-2.69.33-5.41.34-8.11A23.61,23.61,0,0,0,413.73,224.09Z" style="fill:#263238"></path><path d="M410.39,208.71a26.33,26.33,0,0,0-.22,4.61,0,0,0,0,0,.07,0c.09-1.53.1-3,.28-4.58C410.53,208.66,410.4,208.63,410.39,208.71Z" style="fill:#263238"></path><path d="M404.19,210a16.69,16.69,0,0,1-2.78-1.37c-.08-.05-.14.07-.07.12a10.9,10.9,0,0,0,2.82,1.34S404.24,210,404.19,210Z" style="fill:#263238"></path><path d="M415.51,271.09c0-2.39-.06-4.79-.09-7.18q-.06-11.94-.25-23.86-.17-9.48-.44-18.94s0-.06-.06-.08c0-1.73,0-3.45,0-5.18,0,0-.06-.06-.11-.06s-.1,0-.1.07l0,5.18s-.05,0-.05.07c-.32,11.24-.61,22.48-.67,33.72,0,2.28,0,4.57,0,6.85q-.12,11-.09,22c0,1.16,0,2.33,0,3.5,0,6.7.06,13.41.07,20.11,0,.36.4.54.82.56s1-.18,1-.59c0-7.39.05-14.79.05-22.18C415.53,280.41,415.55,275.75,415.51,271.09Z" style="fill:#263238"></path><path d="M406.46,263.82s-10.42-7.73-20.31-2.51-11.45,25.34-11.45,25.34,14.53,2.07,23.68-6.63C407.19,271.62,406.46,263.82,406.46,263.82Z" style="fill:#6C63FF"></path><path d="M409.3,264.29a12.47,12.47,0,0,0-6-.79,9.23,9.23,0,0,0-1.28-.12l-1.47-.11-3-.22c-2.06-.15-4.12-.28-6.17-.48-.08,0-.09.12,0,.13,2,.26,4.06.55,6.09.75,1.05.11,2.1.22,3.15.29l.76.08c-.31.07-.62.14-.92.23a24.78,24.78,0,0,0-4.73,1.91c-.82.15-1.63.38-2.44.57-1.29.31-2.57.64-3.85,1-2.54.67-5,1.41-7.55,2.14a.07.07,0,0,0,0,.13c2.51-.61,5-1.18,7.54-1.78l3.67-.88,1-.22a30.72,30.72,0,0,0-7.41,6.44,39.88,39.88,0,0,0-5.15,8.13c0,.07.07.14.11.07a39.77,39.77,0,0,1,6.23-8.18c0,.14-.09.28-.13.41-.2.62-.39,1.23-.58,1.85-.39,1.22-.78,2.45-1.15,3.68a.07.07,0,0,0,.13,0c.44-1.19.86-2.39,1.28-3.59.2-.58.41-1.17.62-1.76l.31-.91c0-.1.07-.19.1-.28a34.42,34.42,0,0,1,3.7-3.15,27.85,27.85,0,0,1,5.53-3.18c0,.18-.07.37-.11.54l-.3,1.42c-.21,1-.4,2-.59,3-.39,2-.64,4.06-1,6.08,0,.08.11.11.12,0,.47-2,1.07-4,1.53-6.06.22-1,.45-2,.66-3.05.1-.48.2-1,.29-1.43a7.49,7.49,0,0,0,.15-.8c.19-.08.37-.16.57-.23a16.34,16.34,0,0,1,8.67-1.19,8.49,8.49,0,0,1,6.27,5,.21.21,0,0,0,.4-.14A8,8,0,0,0,409.3,264.29Z" style="fill:#263238"></path><path d="M393.35,272.88c-.3,1.32-.59,2.64-.88,4a28.52,28.52,0,0,0-.73,3.86c0,.05.07.05.08,0a30.28,30.28,0,0,0,.89-3.88c.25-1.31.51-2.61.76-3.92C393.49,272.83,393.36,272.8,393.35,272.88Z" style="fill:#263238"></path><path d="M383.26,276.24c-1.32.67-2.61,1.44-4,2-.08,0,0,.16.06.12,1.33-.67,2.71-1.26,4-2.06C383.33,276.27,383.3,276.22,383.26,276.24Z" style="fill:#263238"></path><path d="M408.81,249.63s-12.74.81-18.67-7.59-4.6-20.4-4.6-20.4,13.39,1.63,18.7,7.66S408.81,249.63,408.81,249.63Z" style="fill:#6C63FF"></path><path d="M414.79,262.2c-.45-1.36-1-2.71-1.51-4.05s-1-2.55-1.58-3.81a80.21,80.21,0,0,0-3.82-7.51c-.9-1.55-1.86-3.05-2.86-4.53,0-.23-.06-.45-.09-.68l-.18-1.18c-.13-.81-.27-1.61-.4-2.42-.3-1.76-.66-3.51-.94-5.27,0-.08-.15-.08-.13,0,.25,1.73.43,3.48.67,5.22.12.86.23,1.71.36,2.57l.15.92a93.48,93.48,0,0,0-6.3-8.17l-.93-1-.12-.3c-.1-.24-.19-.48-.28-.72-.19-.51-.37-1-.55-1.52-.36-1-.68-2-.95-3a.07.07,0,0,0-.13,0c.26,1.05.53,2.09.84,3.13.15.5.31,1,.49,1.48l.09.24c-1.63-1.77-3.33-3.48-5.05-5.17a.06.06,0,0,0-.09.09,92.12,92.12,0,0,1,9,11.06,8.1,8.1,0,0,0-.94-.24c-1-.19-2-.33-3-.45-2.08-.27-4.15-.53-6.22-.86-.08,0-.11.12,0,.13,2,.39,3.93.84,5.89,1.29.93.21,1.86.39,2.79.57a19,19,0,0,1,2.23.64l.63.88c.93,1.36,1.83,2.75,2.71,4.15l-1.3-.25c-1-.19-2-.37-3-.53-2-.32-3.89-.66-5.81-1.1a.07.07,0,1,0,0,.13c1.94.46,3.87,1,5.81,1.51.93.24,1.87.47,2.81.68l1.42.31a3.05,3.05,0,0,0,.57.09q2.79,4.53,5.23,9.26c.71,1.39,1.39,2.79,2.06,4.2s1.26,2.92,1.89,4.39C414.42,262.64,414.89,262.52,414.79,262.2Z" style="fill:#263238"></path><path d="M401.75,232.92c-.25-1.21-.5-2.43-.77-3.64,0-.08-.15,0-.13,0,.24,1.2.47,2.39.69,3.59a35.8,35.8,0,0,0,.72,3.57s0,0,0,0A25.18,25.18,0,0,0,401.75,232.92Z" style="fill:#263238"></path><path d="M394.31,232.57a17.27,17.27,0,0,0-1.83-.77l-1-.38-.5-.2a2.5,2.5,0,0,1-.53-.23c-.1-.08-.16.09-.07.11a2.18,2.18,0,0,1,.55.22l.48.22.93.41a18.87,18.87,0,0,0,1.88.75C394.34,232.72,394.38,232.6,394.31,232.57Z" style="fill:#263238"></path><path d="M421.85,239.61s7.71-14.4,19.44-16.63,18.91,9.84,18.91,9.84-8.56,10.93-19.32,12.83S421.85,239.61,421.85,239.61Z" style="fill:#6C63FF"></path><path d="M449.15,229.44a31.53,31.53,0,0,0-9.2.11l.52-.29,2.61-1.34c1.8-.93,3.62-1.93,5.5-2.69a.07.07,0,1,0-.05-.12c-1.84.86-3.74,1.58-5.58,2.42-.92.43-1.83.87-2.72,1.34-.58.31-1.22.6-1.79,1a32.29,32.29,0,0,0-7.45,2.48c.48-.53,1-1.06,1.46-1.6,1.1-1.19,2.17-2.45,3.37-3.54.07-.06,0-.15-.09-.09-1.23,1.11-2.53,2.15-3.72,3.31-.58.56-1.13,1.14-1.67,1.74-.27.3-.53.61-.79.93a30.94,30.94,0,0,0-15.73,21.23c0,.08.1.13.13.05a35.5,35.5,0,0,1,8.62-14.6,33.86,33.86,0,0,1,15.72-9.09,34.43,34.43,0,0,1,10.84-1A.12.12,0,0,0,449.15,229.44Z" style="fill:#263238"></path><path d="M460.2,232.82s-8.56,10.93-19.33,12.83c-8.21,1.46-15-2.82-17.7-4.93l-.6-1s5.56-4.69,16.06-7.39S460.2,232.82,460.2,232.82Z" style="opacity:0.1"></path><path d="M442.34,224.3a28,28,0,0,0-2.61,1.72,17.73,17.73,0,0,0-2.26,2.07c-.06.07,0,.15.1.1.78-.68,1.56-1.36,2.37-2a24.18,24.18,0,0,1,2.47-1.78C442.48,224.37,442.41,224.26,442.34,224.3Z" style="fill:#263238"></path><path d="M448.77,226.74l-1.31.52-1.31.54c-.09,0,0,.19.05.15l1.31-.53,1.3-.56A.06.06,0,1,0,448.77,226.74Z" style="fill:#263238"></path><path d="M420.31,257.74S422.37,272,433.11,277,457,277,457,277,451.8,246.11,420.31,257.74Z" style="fill:#6C63FF"></path><path d="M449.55,267.73c-1-.11-2-.28-3-.46l-1.44-.27c-.24-.05-.5-.11-.75-.15-.29-.27-.58-.55-.87-.81a43.37,43.37,0,0,0-6.58-4.76,35.58,35.58,0,0,0-3.93-2h.2l3.54.16c2.35.11,4.71.16,7.07.31.08,0,.08-.13,0-.13-2.36-.16-4.71-.42-7.08-.63l-3.43-.3-1.77-.16-.45,0c-.62-.23-1.24-.45-1.86-.64a16.78,16.78,0,0,0-9.1-.5c-2.7.69-5.4,2.46-6.1,5.31,0,.1.13.16.17.07,1-2.39,3.65-3.58,6-4.08a14.42,14.42,0,0,1,4.86-.09,12,12,0,0,0,.55,2.16c.29,1,.59,2,.89,3,.61,2,1.28,4,1.87,6a.07.07,0,0,0,.13,0c-.5-2-.92-4-1.4-6-.24-1-.49-2-.73-3a18.56,18.56,0,0,0-.54-2,26.31,26.31,0,0,1,2.79.66,42.88,42.88,0,0,1,4.86,1.78c.16,1,.39,2,.62,3,.3,1.26.62,2.51,1,3.74a.06.06,0,0,0,.12,0c0-.07,0-.15,0-.23h0c-.24-1.17-.5-2.34-.74-3.5-.2-.94-.38-1.89-.59-2.83,1.34.6,2.65,1.26,3.92,2,0,.3.1.59.14.86.08.49.16,1,.25,1.46.21,1.11.43,2.21.69,3.29a51.65,51.65,0,0,0,1.85,6.22.05.05,0,0,0,0,.08l.06.07c.05.06.12,0,.11-.06-.5-2.12-1.07-4.22-1.53-6.35-.23-1.06-.47-2.12-.68-3.18-.11-.54-.21-1.07-.31-1.6,0-.15,0-.32-.07-.48a46,46,0,0,1,4.18,2.79,45,45,0,0,1,6.41,5.85c.07.08.23,0,.15-.13a40.16,40.16,0,0,0-2.56-3.13c-.54-.58-1.1-1.14-1.67-1.68l.18,0,1.51.23c1,.13,2,.23,3,.34C449.6,267.87,449.63,267.74,449.55,267.73Z" style="fill:#263238"></path><path d="M442,272.57h0l-.06-.37c0-.15-.11-.31-.13-.46h0c-.23-1-.41-1.91-.59-2.88,0-.07-.11-.05-.11,0a11.46,11.46,0,0,0,.82,3.73s.08,0,.07,0Z" style="fill:#263238"></path><path d="M433,272.35s0-.06-.07-.06c-.3-1.27-.59-2.54-.85-3.81-.14-.67-.28-1.34-.4-2-.07-.36-.14-.72-.2-1.09a3.2,3.2,0,0,0-.24-.92.07.07,0,0,0-.12,0,6.65,6.65,0,0,0,.27,1.92c.14.7.27,1.4.42,2.09.32,1.41.67,2.81,1.07,4.2,0,.08.15.06.14,0Z" style="fill:#263238"></path><path d="M448.57,263.62c-2-.27-3.92-.56-5.89-.8-.08,0-.12.12,0,.13,2,.29,3.93.54,5.89.79C448.62,263.75,448.66,263.63,448.57,263.62Z" style="fill:#263238"></path><path d="M414.8,224.23s-6.57-28.84,24.42-40.51C439.22,183.72,447.8,221.68,414.8,224.23Z" style="fill:#6C63FF"></path><path d="M421.49,207.87l.34-.2,1.75-1,3.59-2c2.37-1.32,4.7-2.7,7.08-4,.08,0,0-.15-.07-.11-2.38,1.29-4.81,2.51-7.21,3.78l-3.55,1.87L422,207c1-2,2.14-3.88,3.35-5.73,1.62-2.47,3.39-4.83,5.24-7.13a.1.1,0,1,0-.15-.14,48.87,48.87,0,0,0-7.17,8.78c0-.1,0-.2,0-.3,0-.72.06-1.43.07-2.15,0-1.41-.05-2.82,0-4.23,0-.08-.13-.08-.13,0-.06,1.38-.23,2.76-.3,4.15q-.06,1-.09,2.07c0,.38-.05.8,0,1.21q-1,1.53-1.83,3.09a55.33,55.33,0,0,0-2.77,5.81c0-.72-.07-1.44-.11-2.15-.1-1.58-.29-3.16-.36-4.74,0-.08-.13-.08-.13,0,0,1.58,0,3.16,0,4.74,0,.79.05,1.58.1,2.36l.06.89a50.89,50.89,0,0,0-2.34,7.92,85.09,85.09,0,0,0-1.16,8.71,0,0,0,0,0,0,0,48.18,48.18,0,0,1,1.65-7.77c.38-1.36.79-2.71,1.22-4.06,1.29-.6,2.53-1.36,3.77-2s2.6-1.42,3.89-2.13c2.58-1.42,5.17-2.86,7.83-4.11.08,0,0-.15-.07-.11-2.7,1.22-5.42,2.38-8.07,3.72-1.32.66-2.62,1.37-3.91,2.09-1.08.61-2.18,1.22-3.21,1.91.3-.89.61-1.79,1-2.67C419.25,212.58,420.31,210.19,421.49,207.87Z" style="fill:#263238"></path><path d="M418.88,201.28c0-.08-.14-.08-.13,0,.11,1.65.17,3.29.34,4.93a.08.08,0,1,0,.15,0C419.18,204.56,419,202.93,418.88,201.28Z" style="fill:#263238"></path><path d="M433.74,206.79c-1.94.78-3.9,1.52-5.83,2.33-.05,0,0,.11,0,.09,2-.74,3.89-1.53,5.84-2.29C433.86,206.88,433.82,206.76,433.74,206.79Z" style="fill:#263238"></path><path d="M436.68,193.49a53,53,0,0,0-5.51,2.95.08.08,0,0,0,.09.14c1.8-1.05,3.63-2.06,5.49-3C436.83,193.56,436.76,193.45,436.68,193.49Z" style="fill:#263238"></path><rect x="391.53" y="286.6" width="44.69" height="47.11" style="fill:#37474f"></rect><rect x="388.45" y="303.27" width="2.29" height="80.69" style="fill:#263238"></rect><rect x="436.76" y="303.27" width="2.29" height="80.69" style="fill:#263238"></rect><rect x="413.82" y="303.27" width="2.29" height="80.69" style="fill:#263238"></rect><rect x="389.59" y="330.69" width="48.31" height="6.52" style="fill:#263238"></rect></g><g id="freepik--Cloud--inject-14"><path d="M103.73,378.52a39.43,39.43,0,0,0,36.48,39.31v.11H363.45a46.33,46.33,0,0,0,4.33-92.46A78.06,78.06,0,0,0,216.5,301.07a45.7,45.7,0,0,0-20.71-4.9,46.32,46.32,0,0,0-46.24,43.46,38.51,38.51,0,0,0-6.41-.52A39.42,39.42,0,0,0,103.73,378.52Z" style="fill:#6C63FF"></path><g style="opacity:0.1"><path d="M103.73,378.52a39.43,39.43,0,0,0,36.48,39.31v.11H363.45a46.33,46.33,0,0,0,4.33-92.46A78.06,78.06,0,0,0,216.5,301.07a45.7,45.7,0,0,0-20.71-4.9,46.32,46.32,0,0,0-46.24,43.46,38.51,38.51,0,0,0-6.41-.52A39.42,39.42,0,0,0,103.73,378.52Z"></path></g><path d="M90.23,378.52a39.43,39.43,0,0,0,36.48,39.31v.11H349.94a46.33,46.33,0,0,0,4.33-92.46A78.05,78.05,0,0,0,203,301.07a45.7,45.7,0,0,0-20.71-4.9,46.32,46.32,0,0,0-46.24,43.46,38.6,38.6,0,0,0-6.41-.52A39.42,39.42,0,0,0,90.23,378.52Z" style="fill:#6C63FF"></path><path d="M270.12,250.2V354.12H229.88V265.24A77.62,77.62,0,0,1,270.12,250.2Z" style="fill:#fff"></path><polygon points="290.79 354.12 209.21 354.12 250 404.79 290.79 354.12" style="fill:#fff"></polygon></g><g id="freepik--Files--inject-14"><rect x="135.05" y="83.38" width="75.99" height="49.13" style="fill:#6C63FF"></rect><polygon points="158.99 78.29 135.05 78.29 135.05 83.38 160.37 83.38 158.99 78.29" style="fill:#6C63FF"></polygon><g style="opacity:0.1"><rect x="135.05" y="83.38" width="75.99" height="49.13"></rect><polygon points="158.99 78.29 135.05 78.29 135.05 83.38 160.37 83.38 158.99 78.29"></polygon></g><polygon points="189.63 110.1 140.21 110.08 140.24 46.64 176.93 46.66 189.65 58.75 189.63 110.1" style="fill:#6C63FF"></polygon><polygon points="189.63 110.1 140.21 110.08 140.24 46.64 176.93 46.66 189.65 58.75 189.63 110.1" style="fill:#fff;opacity:0.6000000000000001"></polygon><polygon points="176.93 46.66 189.65 58.75 176.93 58.75 176.93 46.66" style="fill:#6C63FF"></polygon><polygon points="176.93 46.66 189.65 58.75 176.93 58.75 176.93 46.66" style="fill:#fff;opacity:0.4"></polygon><rect x="145.05" y="57.29" width="27.48" height="1.63" transform="translate(317.55 116.3) rotate(-179.97)" style="fill:#fff"></rect><rect x="145.05" y="61.4" width="27.48" height="1.63" transform="translate(317.55 124.52) rotate(-179.97)" style="fill:#fff"></rect><rect x="145.05" y="65.52" width="27.48" height="1.63" transform="translate(317.54 132.74) rotate(-179.97)" style="fill:#fff"></rect><rect x="145.05" y="69.63" width="40.26" height="1.63" transform="translate(330.32 140.98) rotate(-179.97)" style="fill:#fff"></rect><rect x="145.04" y="73.74" width="40.26" height="1.63" transform="translate(330.31 149.2) rotate(-179.97)" style="fill:#fff"></rect><rect x="145.04" y="77.85" width="40.26" height="1.63" transform="matrix(-1, 0, 0, -1, 330.3, 157.42)" style="fill:#fff"></rect><rect x="145.04" y="81.97" width="40.26" height="1.63" transform="matrix(-1, 0, 0, -1, 330.3, 165.65)" style="fill:#fff"></rect><rect x="145.04" y="86.08" width="40.26" height="1.63" transform="translate(330.29 173.87) rotate(-179.97)" style="fill:#fff"></rect><rect x="145.04" y="90.19" width="40.26" height="1.63" transform="translate(330.29 182.09) rotate(-179.97)" style="fill:#fff"></rect><rect x="145.03" y="94.3" width="40.26" height="1.63" transform="translate(330.28 190.32) rotate(-179.97)" style="fill:#fff"></rect><rect x="145.03" y="98.41" width="40.26" height="1.63" transform="translate(330.27 198.54) rotate(-179.97)" style="fill:#fff"></rect><rect x="145.03" y="102.53" width="40.26" height="1.63" transform="translate(330.27 206.76) rotate(-179.97)" style="fill:#fff"></rect><polygon points="177.99 120.25 233.51 101.98 221.25 64.86 165.73 83.13 177.99 120.25" style="fill:#ebebeb"></polygon><polygon points="179.53 117.18 230.44 100.42 219.71 67.93 168.8 84.68 179.53 117.18" style="fill:#fff"></polygon><path d="M176.76,93.29a5.83,5.83,0,1,0,3.72-7.36A5.83,5.83,0,0,0,176.76,93.29Z" style="fill:#dbdbdb"></path><polygon points="195.36 112.03 230.43 100.49 205.07 82.49 195.36 112.03" style="fill:#dbdbdb"></polygon><polygon points="181.62 116.56 210.57 107.03 191 96.32 181.62 116.56" style="fill:#ebebeb"></polygon><polygon points="210.85 132.51 134.87 132.51 129.64 87.46 205.63 87.46 210.85 132.51" style="fill:#6C63FF"></polygon><polygon points="153.05 82.79 129.1 82.79 129.64 87.46 154.96 87.46 153.05 82.79" style="fill:#6C63FF"></polygon><path d="M148.47,113.92a5.54,5.54,0,0,0,5.13,5.52v0H185a6.51,6.51,0,0,0,.61-13A11,11,0,0,0,164.32,103a6.51,6.51,0,0,0-9.41,5.42,5.29,5.29,0,0,0-.9-.07A5.54,5.54,0,0,0,148.47,113.92Z" style="fill:#fff"></path><path d="M173.75,95.88v14.6H168.1V98A10.85,10.85,0,0,1,173.75,95.88Z" style="fill:#6C63FF"></path><polygon points="176.66 110.48 165.19 110.48 170.93 117.61 176.66 110.48" style="fill:#6C63FF"></polygon><path d="M159.81,136.57c-.09-.65-.12-1-.12-1l1-.08s0,.35.12,1Z" style="fill:#263238"></path><path d="M186.8,164.34c-.7,0-1.41-.09-2.1-.16l.1-1c.67.07,1.36.12,2,.15Zm-4.2-.46c-.7-.13-1.39-.28-2.06-.46l.25-1c.65.17,1.32.32,2,.44Zm-4.09-1.09c-.66-.23-1.33-.5-2-.79l.42-.91c.61.28,1.25.54,1.89.76ZM174.65,161c-.61-.35-1.21-.73-1.8-1.13l.57-.82c.56.38,1.14.75,1.72,1.08Zm-3.49-2.4c-.54-.44-1.07-.92-1.58-1.42l.7-.71c.49.47,1,.93,1.51,1.36Zm-3-3c-.46-.52-.91-1.08-1.34-1.64l.8-.6c.41.54.85,1.08,1.29,1.58Zm-2.55-3.38c-.37-.58-.74-1.18-1.09-1.8l.87-.5c.33.59.68,1.18,1.06,1.76Zm-2.07-3.68c-.31-.64-.6-1.29-.87-1.92l.92-.39c.26.62.54,1.25.85,1.88Zm-1.63-3.89c-.25-.69-.47-1.35-.67-2l1-.29c.19.63.41,1.28.65,1.95Zm-1.23-4c-.19-.75-.35-1.44-.47-2.06l1-.19c.12.6.27,1.27.46,2Z" style="fill:#263238"></path><path d="M188.94,164.36l0-1,1,0,.05,1Z" style="fill:#263238"></path><polygon points="184.09 166.96 183.72 166.03 189.83 163.65 183.62 161.55 183.94 160.6 192.75 163.58 184.09 166.96" style="fill:#263238"></polygon></g><g id="freepik--Character--inject-14"><path d="M121.55,295.15c2.76,1,84.34,2.3,87.44.45.37-.2,1.07-17.78,1.07-17.78,14.63-30.07,29-57.18,29-57.18l-57.34-2.26-23.28,49.3s-32.52,15.22-33.73,16.12C121.5,286.18,118.78,294.14,121.55,295.15Z" style="fill:#f7a9a0"></path><path d="M121.54,295.15c2.77,1,84.35,2.3,87.45.45.37-.2,1.07-17.78,1.07-17.78,1.81-3.73,3.62-7.4,5.39-11l-52.19-9.44-4.86,10.29s-32.52,15.22-33.73,16.12C121.5,286.18,118.78,294.14,121.54,295.15Z" style="fill:#ebebeb"></path><path d="M120.8,295.76c2.85,1,84.89,2.44,88.05.52,1.21-.72,1.8-6.49,2.48-20.94l-52.27-8.92s-32,15.17-35.2,17.65S118,294.75,120.8,295.76Z" style="fill:#a6a6a6"></path><path d="M122,292.5c13.76-.1,69.26.8,82.87,1.75.11,0,.11.09,0,.09-13.63.39-69.13-1-82.87-1.62C121.74,292.71,121.74,292.5,122,292.5Z" style="fill:#263238"></path><path d="M129.19,281.21a11,11,0,0,1,8.16,3.5,10.69,10.69,0,0,1,3,7.4c0,.08-.16.08-.17,0a12.77,12.77,0,0,0-10.95-10.72A.09.09,0,1,1,129.19,281.21Z" style="fill:#263238"></path><path d="M153.4,269.36c5.5,0,11.85,2.08,15.19,6.64.13.17-.12.36-.28.27a75.9,75.9,0,0,0-15-6.23A.35.35,0,0,1,153.4,269.36Z" style="fill:#263238"></path><path d="M149.12,270.94c5.51,0,11.85,2.08,15.2,6.64.13.18-.13.36-.29.27a75.9,75.9,0,0,0-15-6.23A.35.35,0,0,1,149.12,270.94Z" style="fill:#263238"></path><path d="M144.84,272.53c5.51,0,11.86,2.07,15.2,6.63.13.18-.13.36-.29.27a76.5,76.5,0,0,0-15-6.23A.34.34,0,0,1,144.84,272.53Z" style="fill:#263238"></path><path d="M140.56,274.11c5.51,0,11.86,2.07,15.2,6.63.13.18-.12.36-.29.28a75.85,75.85,0,0,0-15-6.24A.34.34,0,0,1,140.56,274.11Z" style="fill:#263238"></path><path d="M201.63,281.13c6.17.13,6,9.72-.2,9.6S195.44,281,201.63,281.13Z" style="fill:#fff"></path><path d="M148,262.64c2.91,3.89,7.39,6.38,11.26,9.16a.67.67,0,0,0,1-.43.15.15,0,0,0,.18-.15,29,29,0,0,0-4.76-14.16c-1.68-2.43-5.15-4.75-8-2.49S146.31,260.38,148,262.64Zm-.17-4.56c.65-6,6-1.28,7.14.56a29.44,29.44,0,0,1,1.94,3.74,83.75,83.75,0,0,1,3,8.21c-1.81-1.48-3.74-2.79-5.61-4.2C152,264.7,147.47,261.38,147.83,258.08Z" style="fill:#263238"></path><path d="M180,268.05c-.36-3.6-4.45-4.45-7.36-3.94a28.81,28.81,0,0,0-13.43,6.53.15.15,0,0,0,0,.24.68.68,0,0,0,.39,1c4.7.81,9.62,2.26,14.43,1.61C176.88,273.12,180.39,271.46,180,268.05Zm-13,3.61c-2.32-.34-4.61-.8-6.94-1.05A84.84,84.84,0,0,1,168,267a31.77,31.77,0,0,1,4-1.24c2.13-.46,9.21,0,5.4,4.7C175.36,273,169.79,272.07,167,271.66Z" style="fill:#263238"></path><path d="M219.67,261.21l-57-8.65s32.26-63.11,44.39-84.3c9.44-16.49,35.26-17.3,47.81,2.46,16.78,26.39,29.8,51.12,37.26,64.83L305,236.66l-2.8,21.14-43,9.63c-16.47,2-28-27.35-28.3-26.86C230,242.36,219.67,261.21,219.67,261.21Z" style="fill:#37474f"></path><path d="M230.63,240.7c1.62-3.32,2.88-6.85,4.33-10.25s2.79-6.58,4.18-9.88c2.8-6.67,5.69-13.3,8.41-20,1.52-3.76,2.92-7.56,4.34-11.36,0-.09.18-.05.15,0q-1.65,5.38-3.45,10.73c.32-.62.64-1.23,1-1.83.92-1.64,1.86-3.25,2.81-4.87,0-.07.13,0,.1.06-.88,1.62-1.75,3.24-2.66,4.85-.45.8-.95,1.59-1.43,2.39a250.59,250.59,0,0,1-11.83,29.23c-1.81,3.72-3.93,7.28-5.75,11C230.74,240.93,230.57,240.82,230.63,240.7Z" style="fill:#263238"></path><path d="M218.4,251.07c2.75-4.25,9.3-17.09,11.64-21.53,4.75-9,9.09-18.15,13.2-27.44,2.32-5.25,4.49-10.54,6.63-15.86,0,0,.08,0,.06,0a301.77,301.77,0,0,1-11.25,28.18c-4.19,9.22-17.68,34.06-20.11,36.75C218.48,251.27,218.33,251.18,218.4,251.07Z" style="fill:#263238"></path><path d="M253.81,193.33c4.92,8.78,9.94,17.49,14.87,26.26q3.75,6.65,7.46,13.3c1.16,2.1,2.29,4.21,3.49,6.28a11.94,11.94,0,0,0,4.51,4.68,35.1,35.1,0,0,0,7.16,2.49c2.77.81,5.53,1.69,8.31,2.45a.1.1,0,0,1-.06.2c-2.48-.67-5-1.24-7.49-1.86a63.72,63.72,0,0,1-6.8-1.83,11.1,11.1,0,0,1-5-3.48,41.73,41.73,0,0,1-3.53-5.89q-7.4-13.53-14.65-27.12c-2.76-5.16-5.49-10.32-8.27-15.45A0,0,0,1,1,253.81,193.33Z" style="fill:#263238"></path><path d="M221,253.2c-3.42-.62-6.92-.92-10.37-1.36l-10.36-1.34c-6.89-.9-30.36-4.64-32.13-5.23-.11,0-.07-.21,0-.22,1.68-.05,17,2,20.49,2.5,6.89,1,13.74,2.24,20.61,3.4,2,.33,3.91.7,5.87,1.05s3.91.77,5.88,1C221.12,253,221.09,253.23,221,253.2Z" style="fill:#263238"></path><path d="M89,448c2.78,1,84.38.77,87.44-1.13.37-.22.75-17.8.75-17.8,14.08-30.33,27.92-57.7,27.92-57.7l-57.37-1.22-22.39,49.71S93.11,435.7,91.91,436.63C88.78,439.06,86.21,447.06,89,448Z" style="fill:#f7a9a0"></path><path d="M89,448c2.79,1,84.38.77,87.44-1.14.37-.2.75-17.79.75-17.79,1.74-3.77,3.49-7.47,5.19-11.09L130,409.52l-4.68,10.37S93.11,435.7,91.91,436.62C88.79,439.06,86.21,447.07,89,448Z" style="fill:#ebebeb"></path><path d="M88.26,448.65c2.86,1,84.92.9,88.05-1.08,1.19-.74,1.67-6.51,2.09-21l-52.42-8S94.3,434.37,91.1,436.91,85.39,447.69,88.26,448.65Z" style="fill:#a6a6a6"></path><path d="M89.43,445.36c13.76-.34,69.27-.44,82.89.26.11,0,.11.08,0,.09-13.63.64-69.14.29-82.89-.12C89.14,445.58,89.14,445.37,89.43,445.36Z" style="fill:#263238"></path><path d="M96.38,434a11.07,11.07,0,0,1,8.23,3.35,10.74,10.74,0,0,1,3.08,7.35c0,.08-.16.08-.17,0a12.77,12.77,0,0,0-11.14-10.53A.09.09,0,0,1,96.38,434Z" style="fill:#263238"></path><path d="M120.37,421.67c5.51-.08,11.89,1.85,15.32,6.35.13.18-.12.37-.29.28a76.33,76.33,0,0,0-15.12-6A.34.34,0,0,1,120.37,421.67Z" style="fill:#263238"></path><path d="M116.12,423.33c5.51-.08,11.89,1.85,15.32,6.35.13.18-.12.36-.28.28A76.66,76.66,0,0,0,116,424,.34.34,0,0,1,116.12,423.33Z" style="fill:#263238"></path><path d="M111.87,425c5.51-.08,11.89,1.86,15.32,6.36.13.18-.12.36-.28.28a76.41,76.41,0,0,0-15.13-6A.35.35,0,0,1,111.87,425Z" style="fill:#263238"></path><path d="M107.62,426.64c5.51-.08,11.89,1.86,15.32,6.36.13.18-.12.36-.28.28a76.41,76.41,0,0,0-15.13-6A.35.35,0,0,1,107.62,426.64Z" style="fill:#263238"></path><path d="M168.81,432.56c6.17,0,6.16,9.61,0,9.6S162.62,432.54,168.81,432.56Z" style="fill:#fff"></path><path d="M114.86,415.05c3,3.83,7.5,6.24,11.42,8.95a.67.67,0,0,0,1-.45.14.14,0,0,0,.17-.15,28.82,28.82,0,0,0-5-14.08c-1.72-2.4-5.23-4.65-8-2.34C111.78,409.17,113.12,412.81,114.86,415.05Zm-.26-4.56c.54-6,6-1.4,7.15.42a30.27,30.27,0,0,1,2,3.72c1.26,2.64,2.12,5.41,3.11,8.15-1.85-1.45-3.8-2.73-5.7-4.1C118.91,417,114.3,413.79,114.6,410.49Z" style="fill:#263238"></path><path d="M147,419.87c-.43-3.59-4.54-4.37-7.43-3.81a29,29,0,0,0-13.32,6.78.15.15,0,0,0,0,.23.67.67,0,0,0,.41,1c4.71.73,9.66,2.09,14.45,1.35C143.92,425,147.4,423.27,147,419.87Zm-13,3.85c-2.33-.3-4.62-.72-7-.93a84.75,84.75,0,0,1,7.86-3.79,32,32,0,0,1,4-1.31c2.12-.5,9.2-.12,5.48,4.6C142.39,424.9,136.81,424.08,134,423.72Z" style="fill:#263238"></path><path d="M129.21,409.64l62-.46s32.43-81.61,36.2-85.65c2.54-2.73,19.6-5.76,40-10.23l.11,0c7.52-1.65,15.5-3.5,23.35-5.62,20.45-5.45,40.11-12.62,49.06-22.53,18.73-20.7,0-58.12,0-58.12H287.11s-1.31,16.29,2.72,26.26c0,0-38.82,5.7-71.51,16.31-18.52,6-35.07,13.6-41.48,22.63C167.45,305.46,129.21,409.64,129.21,409.64Z" style="fill:#37474f"></path><path d="M136.21,400.34c7.18-.52,14.36-.71,21.56-.88s14.39-.25,21.58-.17c4.06,0,8.11.28,12.16.33.13,0,.14.2,0,.2-3.62.08-7.24.35-10.86.45s-7.14.18-10.71.24c-7.19.12-14.38.16-21.58.24-4.05,0-8.1,0-12.15-.14A.14.14,0,1,1,136.21,400.34Z" style="fill:#263238"></path><path d="M313,234.71a4.45,4.45,0,0,0,.3.71.11.11,0,0,1,0,.12c.69,2.16,1,4.46,1.65,6.62a10.39,10.39,0,0,0,4,5.72c4.09,2.84,9,4.13,13.77,5.31.16,0,.11.26,0,.27a26.44,26.44,0,0,1-8.13-1.25,21.4,21.4,0,0,1-6.84-3.28,10.71,10.71,0,0,1-3.93-5.92,34.77,34.77,0,0,1-.69-3.8,29.09,29.09,0,0,1-.47-4.45A.2.2,0,0,1,313,234.71Z" style="fill:#263238"></path><path d="M282.08,249.75a60.51,60.51,0,0,1,9.48,3.63l.15.06a2.79,2.79,0,0,1-.14-.57l-.11-.69c0-.23-.06-.48-.08-.72s0-.24,0-.36v0a2.85,2.85,0,0,1-2-1.05,7.61,7.61,0,0,1-1.27-3c-.35-1.35-.68-2.71-1-4.07-.32-1.52-.6-3.05-.84-4.58a29,29,0,0,1-.52-4.54.21.21,0,0,1,.42-.05c.35,1.4.51,2.84.78,4.26s.57,2.84.89,4.25.68,2.81,1.07,4.21c.34,1.23.69,3,2.13,3.44,3,.85,1.63-5.8,1.5-7.1-.3-3-.49-6.09-1-9.07a.1.1,0,0,1,.19-.05c.64,2.75,1.38,5.44,1.87,8.22.24,1.36.41,2.73.55,4.11a6.24,6.24,0,0,1-.27,3.53,2.6,2.6,0,0,1-1.95,1.45l.09.31c.07.22.14.44.19.66s.11.45.16.67a1.68,1.68,0,0,1,.1.82.3.3,0,0,1-.15.18c1.27.55,2.53,1.1,3.79,1.68a34.12,34.12,0,0,1,4.55,2.21c.17.08,0,.32-.13.28a34.39,34.39,0,0,1-4.77-1.72c-1.58-.61-3.15-1.26-4.72-1.91a59.61,59.61,0,0,1-9-4.2A.15.15,0,0,1,282.08,249.75Z" style="fill:#263238"></path><path d="M195.85,370.37q4.91-12.12,10.37-24t11.56-23.53c1.75-3.37,3.36-6.78,6.88-8.6a25.91,25.91,0,0,1,5.07-1.8c2.05-.55,4.12-1.08,6.18-1.6,16.8-4.25,33.79-7.75,50.49-12.43,8.34-2.34,16.61-5,24.69-8.14,6.55-2.56,13.1-5.53,18.55-10.06a30,30,0,0,0,6.66-7.58c2.07-3.46,6.9-12.88-.26-41.41,0-.13.14-.22.17-.1,5.72,20.32,4.51,31.39,3.47,35.42A25.84,25.84,0,0,1,335,276c-4.22,5.4-10.18,9.14-16.3,12.06a170,170,0,0,1-22.62,8.48c-16.64,5.21-33.7,8.86-50.65,12.88-4.21,1-8.41,2-12.59,3.09-3.74,1-8.12,1.71-10.8,4.76a25.35,25.35,0,0,0-3.13,5.17c-1,1.94-2,3.88-3,5.83q-3,6-5.93,12.05-11.43,23.9-20.81,48.7c-.77,2.05-1.53,4.1-2.32,6.14-.06.16-.3.09-.25-.07C189.35,386.72,192.56,378.51,195.85,370.37Z" style="fill:#263238"></path><path d="M193,279.4c2.58-1.55,13.3-7.06,19-9,5.93-2,12-3.71,18-5.35q18.65-5.08,37.69-8.48,5.42-1,10.85-1.84a95.64,95.64,0,0,1,10.67-1.31c.12,0,.14.18,0,.21-3.14.78-6.36,1.26-9.55,1.8s-6.29,1.1-9.42,1.71q-9.4,1.8-18.75,3.92c-12.33,2.8-24.68,5.86-36.73,9.67-6.41,2-16.08,6.69-21.49,9.11A.26.26,0,0,1,193,279.4Z" style="fill:#263238"></path><path d="M233.42,300.27c-2.66-1.65-5.25-3.44-8-4.92-1.34-.72-2.73-1.35-4-2.2s-2.58-1.79-3.86-2.69a74.9,74.9,0,0,1-7.36-5.54,75.94,75.94,0,0,0-7.3-6.11c-.1-.08,0-.24.1-.17a71.15,71.15,0,0,0,8.16,4.72,47.14,47.14,0,0,1,5.52,3.45,32.44,32.44,0,0,1-3.13-2.6c-1.63-1.55-3.24-3.14-5-4.57-.09-.07,0-.23.11-.16a57.32,57.32,0,0,0,5.66,3.19c.28.14.56.3.83.45-.62-.45-1.24-.92-1.83-1.41-.86-.71-1.68-1.47-2.54-2.2-.39-.32-.77-.65-1.17-1l-.19-.14h0a1.53,1.53,0,0,1-1-.88.07.07,0,0,1,.1-.09c1.89,1,3.84,1.88,5.74,2.85s3.75,2.2,5.59,3.34A59.25,59.25,0,0,1,230,291.24a.4.4,0,0,1-.42.64,46.34,46.34,0,0,1-4.88-2.45l.26.2c1.65,1.36,3.17,2.88,4.73,4.34.08.07,0,.23-.12.19-1.92-.8-3.9-1.57-5.74-2.53-.59-.32-1.17-.67-1.74-1l.68.48a43,43,0,0,1,3.38,2.95c2.35,2.14,5,4,7.48,5.93A.19.19,0,0,1,233.42,300.27Z" style="fill:#f7a9a0"></path><path d="M222.28,278c1.86,1,3.64,2.2,5.52,3.2a30.54,30.54,0,0,1,5.26,3.3c3.24,2.69,6,5.93,9.25,8.57.1.07,0,.23-.11.15-3.28-2.63-7.07-4.46-10.55-6.8a37,37,0,0,1-4.72-4c-1.54-1.46-3.23-2.75-4.83-4.13A.15.15,0,0,1,222.28,278Z" style="fill:#f7a9a0"></path><path d="M197.42,282.36c3.58,1.64,7.33,2.88,10.88,4.56a25.24,25.24,0,0,1,4.76,3c1.6,1.26,3,2.71,4.72,3.88a.1.1,0,0,1-.1.17,47,47,0,0,0-5.44-2.4,31.8,31.8,0,0,1-5.14-2.69c-3.26-2.15-6.34-4.51-9.8-6.34C197.16,282.5,197.29,282.3,197.42,282.36Z" style="fill:#f7a9a0"></path><path d="M308.37,171.4c-4.65,18.93-15.93,48.35-25.9,48.19-9.1-.14-29.39-16.27-37.89-21.56s10.57-26.11,15.44-22.74c7.55,5.22,18.86,14.54,20.77,13.93,2.38-.76,5.4-6.61,19-23.88C305.32,158.28,310.35,163.34,308.37,171.4Z" style="fill:#f7a9a0"></path><path d="M250.88,167.26c-4-1.41-8.49-3.36-12.94-3.27s-8.15,6-8.15,7.64,1.68,12.18,6.13,12.18,1.77-8.06,1.94-9,.33-2.1,1.17-2,15.55,7.06,15.55,7.06Z" style="fill:#f7a9a0"></path><path d="M250.6,167.88c-.25,0-12.18-4.71-16.64-4.62s-8.15,6-8.15,7.64,1.68,12.18,6.14,12.18,1.76-8.06,1.93-9,.34-2.11,1.18-2,15.54,7.06,15.54,7.06Z" style="fill:#f7a9a0"></path><path d="M233.46,182.52a5.28,5.28,0,0,0,.74-2.63,9,9,0,0,0-.16-2.84,14.9,14.9,0,0,1-.54-2.45,4.89,4.89,0,0,1,.62-2.36c.34-.62,1-.41,1.56-.21a23.86,23.86,0,0,1,2.42,1.09l2.54,1.3a24.83,24.83,0,0,1,2.58,1.42c.06,0,0,.15-.05.13a23,23,0,0,1-2.26-1l-2.55-1.17c-.8-.35-1.58-.75-2.38-1.09a2.61,2.61,0,0,0-1.17-.35c-.34.08-.51.91-.59,1.18a4.22,4.22,0,0,0,.16,2.41,13.46,13.46,0,0,1,.46,2.44,6.49,6.49,0,0,1-.19,2.32,8.93,8.93,0,0,1-1.06,1.91C233.54,182.69,233.4,182.6,233.46,182.52Z" style="fill:#263238"></path><path d="M264.72,179.57s-12.34-11.25-14.91-13.48c-5.15-4.49-26.85-13.35-29.88-13.67s-4.11,5.88,10.62,12.32c7.76,3.4,9.14,7.84,9,10.31s-2.5,7-6.64,6.94-6.83-6.16-10.64-6.83-1.3,6.31,1.39,10.34a25.43,25.43,0,0,0,11.15,8.7c3.59,1.35,14.68,6.13,14.68,6.13Z" style="fill:#f7a9a0"></path><path d="M227.76,179.08c1.56,1.21,3.33,2.77,5.38,2.85s3.5-1.3,4.49-3a7.88,7.88,0,0,0,1.09-5.73,9.7,9.7,0,0,0-2.84-4.65,23.53,23.53,0,0,0-5.62-3.74c-.09,0,0-.17.08-.13,1.91.85,7.84,3.28,9,8.52a8.06,8.06,0,0,1-1.16,5.84c-.91,1.65-2.25,3.24-4.26,3.4-2.45.2-4.56-1.79-6.32-3.27C227.56,179.07,227.67,179,227.76,179.08Z" style="fill:#263238"></path><path d="M264.72,178l-18.46,28.66s29.29,16.4,37.57,13.76,20.81-26.4,26-47.24-7.64-12.86-12.61-6.42-15.74,21.33-16.33,21.14S264.72,178,264.72,178Z" style="fill:#6C63FF"></path><path d="M256.72,190.41a33.37,33.37,0,0,1,3.49,1.46,36.67,36.67,0,0,1,6.84,4.52c.56.47,1.13,1,1.68,1.46l.21.18a129.47,129.47,0,0,1,9.52,9.95,125.15,125.15,0,0,0,9.48,9.78l-.51.44a130.27,130.27,0,0,1-9.49-9.75,133.27,133.27,0,0,0-9.81-10.2l-.22-.19c-.43-.39-.86-.77-1.31-1.13a35.35,35.35,0,0,0-6.7-4.43,27,27,0,0,0-3.55-1.5Zm-7.11,11c1.54,1.64,3,3.31,4.54,5,2.48,2.75,5,5.49,7.68,8l1.83.82a125.9,125.9,0,0,1-9-9.33c-1.36-1.52-2.72-3-4.12-4.56l-.26-.27-.27-.29-.21.32-.19.29Zm0,0a7.15,7.15,0,0,0,.93-.05c1.55-.07,3.09-.22,4.62-.42a107.68,107.68,0,0,0,13-2.72,8.12,8.12,0,0,0,.81-.22c.71-.17,1.42-.36,2.11-.55a123.71,123.71,0,0,1,15.81-3.6,39.76,39.76,0,0,1,8.08-.31,31.14,31.14,0,0,1,7.28,1.4l.21-.46a30.14,30.14,0,0,0-7.46-1.39,41.13,41.13,0,0,0-8.15.39A126,126,0,0,0,271,197.22l-2.25.63-.82.21a90.2,90.2,0,0,1-12.77,2.65c-1.61.21-3.22.35-4.85.41l-.48,0Zm47.09-34.09a94.89,94.89,0,0,0,9.38,3.31l.29.1c.72.2,1.43.39,2.15.56.53.13,1.08.25,1.62.34,0-.23.09-.44.14-.67-.53-.1-1.06-.21-1.59-.34s-1.12-.28-1.69-.45a1.43,1.43,0,0,1-.28-.07c-3.24-.92-6.4-2.12-9.56-3.37C297,167,296.88,167.15,296.71,167.35Zm-15.8,20.52a31.32,31.32,0,0,0,4-1.36A40.74,40.74,0,0,0,292,182.6a127,127,0,0,0,12.59-10.3c.59-.52,1.17-1,1.76-1.54l.63-.56c1.29-1.12,2.58-2.22,3.9-3.3a1.27,1.27,0,0,0,0-.28c-1.43,1.13-2.82,2.31-4.21,3.51-.21.17-.42.36-.64.53-.55.49-1.09,1-1.65,1.44a123,123,0,0,1-12.62,10.19,39.54,39.54,0,0,1-7.11,3.81,30.07,30.07,0,0,1-3.07,1.06A3.49,3.49,0,0,1,280.91,187.87ZM259,186.81c.58.18,1.16.35,1.75.51a40.49,40.49,0,0,0,16.2,1.32,29.74,29.74,0,0,0,3.85-.75l-.62-.35a28.35,28.35,0,0,1-3.29.59,41.12,41.12,0,0,1-16-1.42c-.52-.14-1-.29-1.54-.47Z" style="fill:#fff"></path><path d="M266.9,216.65c6.67,2.72,13.22,4.7,16.64,3.84l.3-.08c8.28-2.65,20.79-26.39,26-47.24a32.46,32.46,0,0,0,1.19-8.56c0-.11,0-.2,0-.31a4.23,4.23,0,0,0-.05-.5,1.5,1.5,0,0,0,0-.2,3.11,3.11,0,0,0-.06-.44Z" style="opacity:0.1"></path><path d="M256.57,203.83c.58-1,1.17-2,1.77-3,1.19-2,8.34-14,11.16-17.67.08-.1.23,0,.18.12-2,4.19-9.38,16-10.62,17.92-.63,1-1.26,2-1.9,3s-1.41,1.9-2.05,2.89c-.07.1-.23,0-.17-.08C255.53,205.93,256,204.85,256.57,203.83Z" style="fill:#263238"></path><path d="M350.25,252.79c-.17.19-64.48-20-65.15-20.74-.93-1.09,9.71-61,17.45-70.87,1.66-2.11,12.4-6,17.85,0C341.61,184.89,350.87,252.1,350.25,252.79Z" style="fill:#6C63FF"></path><path d="M287.18,217.08c.87.82,1.77,1.61,2.7,2.38a46,46,0,0,0,9.54,6.21l.51.24a35.76,35.76,0,0,0,3.87,1.53,28.62,28.62,0,0,0,7.88,1.55,35,35,0,0,0,8-.53,98,98,0,0,0,14.7-4.29l.73-.25.11,0c3.13-1.09,6.29-2.15,9.49-3a1.6,1.6,0,0,1,.05.21c-3.19.87-6.34,2-9.45,3.07-.23.08-.48.16-.72.26a100.4,100.4,0,0,1-14.84,4.41,35.23,35.23,0,0,1-8.13.62,29.68,29.68,0,0,1-8-1.5,37.4,37.4,0,0,1-4.56-1.83l-.51-.23a46.12,46.12,0,0,1-9.09-5.93c-.83-.68-1.63-1.38-2.42-2.11C287.09,217.59,287.14,217.34,287.18,217.08Zm-1.66,10.12c.78.1,1.56.17,2.35.21a35.52,35.52,0,0,0,8.11-.61c1-.19,2.08-.43,3.09-.69l.86-.2c3.95-1,7.79-2.46,11.62-3.8a93.26,93.26,0,0,1,15.59-4.44c.54-.1,1.08-.18,1.64-.25.27,0,.54-.08.81-.11a45.67,45.67,0,0,1,13.66.32c.26,0,.51.08.77.14a3.48,3.48,0,0,0-.1-.41c-.2-.05-.4-.08-.6-.12a46.14,46.14,0,0,0-13.93-.18l-.81.11c-.5.08-1,.15-1.49.25a105.75,105.75,0,0,0-15.62,4.44c-4,1.37-8,2.79-12.05,3.81-.28.08-.56.15-.86.21-.87.21-1.75.39-2.63.55a35.06,35.06,0,0,1-8,.53c-.77-.05-1.54-.12-2.3-.23C285.57,226.89,285.54,227,285.52,227.2ZM292,193.5a28.86,28.86,0,0,1,2.94.07,30.66,30.66,0,0,1,7.88,1.6,41.15,41.15,0,0,1,13.73,8.28,92.91,92.91,0,0,1,10.74,12.09c.43.55.85,1.09,1.29,1.63a1.46,1.46,0,0,0,.2.25c1.8,2.3,3.64,4.59,5.64,6.75a2.25,2.25,0,0,0,.21.24q1.64,1.76,3.43,3.36a31.64,31.64,0,0,0,6.74,4.66c.85.41,1.72.81,2.62,1.15-.05-.26-.11-.53-.16-.8-.73-.29-1.45-.62-2.15-1a31,31,0,0,1-6.59-4.58,44,44,0,0,1-3.17-3.09c-.07-.07-.14-.16-.2-.23-2-2.1-3.77-4.35-5.56-6.61l-.2-.25-1.54-1.95A93.34,93.34,0,0,0,317,203a40.47,40.47,0,0,0-14-8.29,30.42,30.42,0,0,0-8-1.57,27.54,27.54,0,0,0-2.87,0C292.06,193.23,292,193.37,292,193.5Zm7.06-25.23c2.31.88,4.65,1.71,7,2.39l.29.1c.72.2,1.43.39,2.15.56a36.36,36.36,0,0,0,8.12,1.05,28,28,0,0,0,4.1-.26c.67-.09,1.35-.23,2-.36s1.34-.22,2-.4,1.57-.39,2.33-.62a6,6,0,0,0-.31-.55q-1.08.3-2.16.54c-1.32.28-2.65.48-4,.72a28.23,28.23,0,0,1-4,.25,36.87,36.87,0,0,1-7.95-1c-.57-.14-1.12-.28-1.69-.45a1.43,1.43,0,0,1-.28-.07c-2.51-.7-5-1.59-7.42-2.53C299.22,167.81,299.14,168,299.06,168.27Zm-3.76,11.95c3.24-2.49,6.27-5.22,9.32-7.92.59-.52,1.17-1,1.76-1.54l.63-.56a92.22,92.22,0,0,1,10.31-8c.83-.54,1.66-1.06,2.51-1.55l-.21-.2c-.82.48-1.64,1-2.44,1.53a106.8,106.8,0,0,0-10.45,8.14c-.21.17-.42.36-.64.53-.55.49-1.09,1-1.65,1.44-2.95,2.58-5.89,5.2-9,7.58C295.41,179.85,295.36,180,295.3,180.22Z" style="fill:#fff"></path><path d="M325.86,180.34c-3.29,19.3-19.49,55.41-30.05,58.8-12.22,3.94-54.65-9.62-63-15.72-3.31-2.43,14.35-23.8,18.48-22.29,17.27,6.36,32.59,9.62,34.81,8.11,3.42-2.32,17.36-22.29,26.42-34.68C323.92,159,327.34,171.68,325.86,180.34Z" style="fill:#f7a9a0"></path><path d="M233.93,224c-1.89-.68-14.89-10.11-18.72-14.54a56.9,56.9,0,0,1-10-15.49c-3.85-9-5.67-15.55-4.74-18.49,1.08-3.42,1.39-4,10.37,10.92,5.09,8.44,9.93,9.39,14.14,9.31a64.63,64.63,0,0,1,29.85,6.67S241.18,226.59,233.93,224Z" style="fill:#f7a9a0"></path><path d="M212.42,160.7l21.71,28a1.12,1.12,0,0,1-.47,1.9l-15.39,4.95a2.61,2.61,0,0,1-2.64-.9l-21.72-28a1.12,1.12,0,0,1,.47-1.9l15.39-4.95A2.64,2.64,0,0,1,212.42,160.7Z" style="fill:#263238"></path><path d="M211.11,159.37l-15.39,4.95a1.12,1.12,0,0,0-.47,1.9l21.71,28a2.62,2.62,0,0,0,2.65.9L235,190.16a1.13,1.13,0,0,0,.47-1.91l-21.72-28A2.63,2.63,0,0,0,211.11,159.37Zm22.72,28.33c.57.74.4,1.53-.37,1.78l-13.77,4.43a2.42,2.42,0,0,1-2.43-.89L197,167c-1.16-1.5-.6-1.78.18-2l2.75-.89a.64.64,0,0,1,.58.27l.06.08a.74.74,0,0,0,1,.26l6.38-2c.36-.11.65-.21.28-.67l-.06-.09c-.16-.2-.15-.4,0-.45l2.76-.89c.77-.25,1.55-.25,2.61,1.13Z" style="fill:#455a64"></path><path d="M205.23,162.79l-1.74.55a.16.16,0,0,1-.18-.06h0a.08.08,0,0,1,0-.13l1.74-.55a.16.16,0,0,1,.18.06h0A.08.08,0,0,1,205.23,162.79Z" style="fill:#263238"></path><line x1="215.98" y1="191.37" x2="215.93" y2="191.39" style="fill:none"></line><path d="M213.6,161.65l20.23,26c.57.74.41,1.53-.37,1.78l-13.77,4.43a2.42,2.42,0,0,1-2.43-.89L197,167c-1.16-1.5-.6-1.78.18-2l2.75-.89a.64.64,0,0,1,.58.27l.06.08a.74.74,0,0,0,1,.26l6.38-2c.36-.11.65-.21.28-.67l-.06-.09c-.16-.2-.15-.4,0-.45l2.76-.89C211.76,160.27,212.54,160.27,213.6,161.65Z" style="fill:#fff"></path><path d="M213.6,161.65l1.51,1.94-16.56,5.32L197,167c-1.16-1.5-.6-1.78.18-2l2.76-.89a.62.62,0,0,1,.57.27l.06.08a.74.74,0,0,0,1,.26l6.38-2c.36-.11.65-.21.28-.67l-.06-.09c-.16-.2-.15-.4,0-.45l2.76-.89C211.76,160.27,212.54,160.27,213.6,161.65Z" style="fill:#6C63FF"></path><g id="freepik--u5Zjqx--inject-14"><path d="M200,164.8v0a.47.47,0,0,0-.33,0,.24.24,0,0,0-.18.17h0l0,0h0s0,0,0,0a.25.25,0,0,1,0-.07s.05,0,.08-.06l0,0h.37l0,0Z" style="fill:#fff"></path><path d="M199.57,165.06l-.07,0a.18.18,0,0,1,.11-.13.39.39,0,0,1,.32,0l0,0a.34.34,0,0,0-.22,0A.15.15,0,0,0,199.57,165.06Z" style="fill:#fff"></path><path d="M199.9,165v.05a.24.24,0,0,0-.12,0,.09.09,0,0,0-.06.06l-.07,0C199.66,165,199.77,165,199.9,165Z" style="fill:#fff"></path><path d="M199.86,165.1s0,0,0,.05a.07.07,0,0,1-.06,0s0,0,0,0A0,0,0,0,1,199.86,165.1Z" style="fill:#fff"></path></g><path d="M197.41,165.7a.08.08,0,0,1,0-.13.2.2,0,0,1,.19.06.09.09,0,0,1,0,.14A.17.17,0,0,1,197.41,165.7Z" style="fill:#fff"></path><path d="M197.75,165.59a.08.08,0,0,1,0-.13.18.18,0,0,1,.18.06c.05.06,0,.12,0,.13A.18.18,0,0,1,197.75,165.59Z" style="fill:#fff"></path><path d="M198.1,165.48a.08.08,0,0,1,0-.13.18.18,0,0,1,.18.06c0,.06,0,.11,0,.13A.17.17,0,0,1,198.1,165.48Z" style="fill:#fff"></path><path d="M198.45,165.37a.07.07,0,0,1,0-.13.2.2,0,0,1,.19.06.08.08,0,0,1,0,.13A.18.18,0,0,1,198.45,165.37Z" style="fill:#fff"></path><path d="M198.79,165.26a.08.08,0,0,1,0-.13.18.18,0,0,1,.18.06.08.08,0,0,1,0,.13A.2.2,0,0,1,198.79,165.26Z" style="fill:#fff"></path><path d="M211.81,161.34l-.89.29-.28-.37.89-.29Zm-.88.23.81-.26-.22-.28-.81.26Z" style="fill:#fff"></path><polygon points="211.33 161.11 210.76 161.3 210.95 161.54 211.52 161.36 211.33 161.11" style="fill:#fff"></polygon><polygon points="211.83 161.23 211.75 161.25 211.6 161.06 211.68 161.03 211.83 161.23" style="fill:#fff"></polygon><path d="M210.29,179.19a2.41,2.41,0,0,0,2.35.77h0l8.1-2.88a1.21,1.21,0,0,0,.48-2.06,2.88,2.88,0,0,0-2.73-.92,4.78,4.78,0,0,0-4.8-1.38,1.93,1.93,0,0,0-1.33,2.56,2.14,2.14,0,0,0-.88.11,1.19,1.19,0,0,0-.54,2l-.25.07A1,1,0,0,0,210.29,179.19Z" style="fill:#6C63FF"></path><g style="opacity:0.1"><path d="M210.29,179.19a2.41,2.41,0,0,0,2.35.77h0l8.1-2.88a1.21,1.21,0,0,0,.48-2.06,2.88,2.88,0,0,0-2.73-.92,4.78,4.78,0,0,0-4.8-1.38,1.93,1.93,0,0,0-1.33,2.56,2.14,2.14,0,0,0-.88.11,1.19,1.19,0,0,0-.54,2l-.25.07A1,1,0,0,0,210.29,179.19Z"></path></g><path d="M209.8,179.36a2.44,2.44,0,0,0,2.35.78h0l8.1-2.87a1.21,1.21,0,0,0,.48-2.06,2.84,2.84,0,0,0-2.73-.92,4.77,4.77,0,0,0-4.8-1.39,1.94,1.94,0,0,0-1.33,2.56,2.32,2.32,0,0,0-.88.11,1.19,1.19,0,0,0-.54,2l-.25.07A1,1,0,0,0,209.8,179.36Z" style="fill:#6C63FF"></path><polygon points="217.76 178.72 216.22 179.27 214.53 177.22 216.07 176.67 217.76 178.72" style="fill:#6C63FF"></polygon><polygon points="218.29 178.54 215.69 179.46 217.92 180.13 218.29 178.54" style="fill:#6C63FF"></polygon><g style="opacity:0.2"><polygon points="217.76 178.72 216.22 179.27 214.53 177.22 216.07 176.67 217.76 178.72"></polygon><polygon points="218.29 178.54 215.69 179.46 217.92 180.13 218.29 178.54"></polygon></g><path d="M222.89,195.64c4.34.06-9.77-8.75-10-13.69s4.6-3.39,8.4-.6c13.18,9.69,23.12,9.21,29.8,18.47S222.89,195.64,222.89,195.64Z" style="fill:#f7a9a0"></path><path d="M236,189.61a35.15,35.15,0,0,1,8.11,3.18,21.07,21.07,0,0,1,5.87,5.5c.07.09-.06.22-.13.12-3.56-4.37-8.83-6.56-13.89-8.67A.07.07,0,0,1,236,189.61Z" style="fill:#263238"></path><path d="M285.19,208.05c-3.37.91-26.89-5.54-26.89-5.54l-13.22,32s41,9.54,50.52,6.23S320,204.9,324.86,186c4.52-17.75-1.51-29.33-14.18-10.95C310.68,175.08,287,207.57,285.19,208.05Z" style="fill:#6C63FF"></path><path d="M277.78,207.23c.24.24.46.5.68.75a109.55,109.55,0,0,0,11.42,11.48,46,46,0,0,0,9.54,6.21l.51.24a35.76,35.76,0,0,0,3.87,1.53,28,28,0,0,0,3.13.89c-.09.15-.19.29-.27.45a30.8,30.8,0,0,1-3-.84,37.4,37.4,0,0,1-4.56-1.83l-.51-.23a46.12,46.12,0,0,1-9.09-5.93,109.81,109.81,0,0,1-11.53-11.5L276.62,207Zm-21.89,1.1a95.24,95.24,0,0,0,9.79,9.58,43.57,43.57,0,0,0,14.16,8,30.39,30.39,0,0,0,8,1.5,35.52,35.52,0,0,0,8.11-.61c1-.19,2.08-.43,3.09-.69l.86-.2c3.5-.93,6.91-2.14,10.31-3.34.07-.12.13-.24.19-.36-3.63,1.26-7.28,2.54-11,3.46-.28.08-.56.15-.86.21-.87.21-1.75.39-2.63.55a35.06,35.06,0,0,1-8,.53,29.75,29.75,0,0,1-7.88-1.54,43.78,43.78,0,0,1-13.92-8,96.4,96.4,0,0,1-9.91-9.79Zm40.93-14.57a30.46,30.46,0,0,1,6,1.41,41.15,41.15,0,0,1,13.73,8.28c.62.56,1.22,1.12,1.81,1.73l.27-.65c-.54-.53-1.09-1-1.66-1.55a40.47,40.47,0,0,0-14-8.29,29.85,29.85,0,0,0-5.84-1.36Zm16.05-21.65a32,32,0,0,0,3.78.26,28,28,0,0,0,4.1-.26c.67-.09,1.35-.23,2-.36s1.34-.22,2-.4c.4-.1.8-.19,1.19-.31,0-.21-.08-.41-.13-.61l-1.2.29c-1.32.28-2.65.48-4,.72a28.23,28.23,0,0,1-4,.25,29.75,29.75,0,0,1-3.27-.21C313.21,171.68,313.05,171.89,312.87,172.11Z" style="fill:#fff"></path><path d="M265.36,238.57c1,.18,2,.36,3,.52" style="fill:#ebebeb"></path><path d="M280.33,207.7c-.9-.15-1.87-.33-2.88-.53" style="fill:#ebebeb"></path><path d="M296.1,239.71c8-4.1,17.89-25.57,19.79-29.78,1.22-2.7,2.33-5.44,3.42-8.19,2.19-5.51,4.2-11.08,6.11-16.68a.08.08,0,0,1,.15,0q-1.57,6.5-3.79,12.83a47.67,47.67,0,0,0,2.62-4.88.08.08,0,0,1,.14.06,27,27,0,0,1-3.05,5.65c-1.5,4.23-3.2,8.4-5.09,12.46-.54,1.17-12,27.47-20.92,29.91-3.11.85-13.77.08-16-.43-.09,0-.12-.14,0-.15C282.51,240.48,293.24,241.18,296.1,239.71Z" style="fill:#263238"></path><path d="M253.93,230.6c.39-1.1.8-2.2,1.21-3.3C256,225.1,260.88,212,263,208a.1.1,0,0,1,.19.08c-1.2,4.48-6.42,17.38-7.3,19.51-.44,1.08-.89,2.17-1.35,3.25s-1.05,2.13-1.51,3.22c-.05.1-.22.06-.18-.06C253.27,232.86,253.53,231.71,253.93,230.6Z" style="fill:#263238"></path><path d="M258.29,202.57c1.95.08,19.55,4.17,23.44,5.05a8,8,0,0,0,2.87.39,4.18,4.18,0,0,0,2.31-1.72c1.26-1.45,15-19.64,16-20.54.37-.34.67-.4.31.17-.61,1-14,19-15.21,20.37s-2.19,2.69-4.09,2.62c-.83,0-24.57-5.36-25.74-5.85C258,203,258,202.55,258.29,202.57Z" style="fill:#263238"></path><path d="M304.45,172.1c3.57-.07,11.55-5.94,12.71-11.37.08-.38-1.42-3.61-3.06-7.61-1-2.44-2-5.18-2.8-7.74-.15-.53-14.92,8.73-14.92,8.73a42.42,42.42,0,0,1,4.51,9.38,6.46,6.46,0,0,1,.2,1.09s0,.11,0,.18C301.4,166.86,300.62,172.18,304.45,172.1Z" style="fill:#f7a9a0"></path><path d="M301.09,164.58s0,.11,0,.18a12.37,12.37,0,0,0,1.68-.41c9.41-3,8.35-15.65,7.94-18.8-2.74,1.27-14.36,8.55-14.36,8.55a42.61,42.61,0,0,1,4.51,9.39A6.46,6.46,0,0,1,301.09,164.58Z" style="fill:#263238"></path><path d="M308.31,124.51c3.28,5.29,4.65,22.73,1.54,27.52-4.51,6.95-14.09,10-20.55,4.12-6.26-5.74-7.65-28.5-4-33.08C290.75,116.32,303.46,116.69,308.31,124.51Z" style="fill:#f7a9a0"></path><path d="M294.44,139c0-.05.09.05.1.09.06,1.18.33,2.52,1.42,2.82,0,0,0,.07,0,.07C294.65,141.93,294.31,140.15,294.44,139Z" style="fill:#263238"></path><path d="M295.38,137.71c1.88-.3,2.35,3.48.61,3.76S293.81,138,295.38,137.71Z" style="fill:#263238"></path><path d="M288,139.79s-.09.07-.08.11c.18,1.17.19,2.53-.82,3,0,0,0,.08,0,.07C288.37,142.68,288.34,140.86,288,139.79Z" style="fill:#263238"></path><path d="M286.78,138.7c-1.89.09-1.58,3.88.18,3.79S288.38,138.62,286.78,138.7Z" style="fill:#263238"></path><path d="M296.66,135.8a12.84,12.84,0,0,1-1.52-.33,2.49,2.49,0,0,1-1.49-.64.8.8,0,0,1,0-1,2,2,0,0,1,2-.45,3,3,0,0,1,1.83,1A.86.86,0,0,1,296.66,135.8Z" style="fill:#263238"></path><path d="M285.09,137a15.11,15.11,0,0,0,1.45-.58,2.47,2.47,0,0,0,1.37-.87.79.79,0,0,0-.16-1,2,2,0,0,0-2-.13,2.89,2.89,0,0,0-1.64,1.33A.86.86,0,0,0,285.09,137Z" style="fill:#263238"></path><path d="M297.14,149.49c-.25.3-.48.72-.9.8a3,3,0,0,1-1.29-.14,0,0,0,0,0,0,.07,1.58,1.58,0,0,0,1.56.45,1.24,1.24,0,0,0,.79-1.14C297.27,149.46,297.18,149.44,297.14,149.49Z" style="fill:#263238"></path><path d="M295.48,146.14a4,4,0,0,1-2.44,2.09,4.87,4.87,0,0,1-1.42.25,1.31,1.31,0,0,1-.28,0h-.26a.3.3,0,0,1-.27-.23h0a.48.48,0,0,1,0-.12h0V148c-.14-.9-.22-2.28-.22-2.28-.31.21-1.89,1.17-1.92.69a59.62,59.62,0,0,1,.06-12.24c0-.13.21-.12.22,0,.38,3.76.1,7.56.43,11.34a7.07,7.07,0,0,1,1.81-.8c.13,0,.11,2.67.2,3.07a.1.1,0,0,0,0,0,5.57,5.57,0,0,0,4-1.78C295.44,146,295.54,146,295.48,146.14Z" style="fill:#263238"></path><path d="M292.09,148a4.8,4.8,0,0,0,2.07,1.24,2.16,2.16,0,0,0,1.3-.08c.91-.36.83-1.22.56-1.93a5,5,0,0,0-.55-1.07A6.17,6.17,0,0,1,292.09,148Z" style="fill:#263238"></path><path d="M294.16,149.19a2.16,2.16,0,0,0,1.3-.08c.91-.36.83-1.22.56-1.93A2.21,2.21,0,0,0,294.16,149.19Z" style="fill:#ff9bbc"></path><path d="M311.15,140.11c-3.21.33-5.17-7.54-5.17-7.54s-4.23-.53-7.18-7.4c0,0-1,7.69-14.27,9.23a11.38,11.38,0,0,1-.67-7,47.25,47.25,0,0,0-1.59,7.76s-5.67-10,2.6-16c3.29-2.38,8.92-3.41,18.35-1.26,0,0,.41-5.44,1.54-5s.39,5.6.39,5.6,3.43-2,4.24-1.41-2.65,2.33-2.65,2.33a7.55,7.55,0,0,1,6.73,7.22C314,132.85,312.74,140,311.15,140.11Z" style="fill:#263238"></path><path d="M305.7,119.59a6.89,6.89,0,0,1,8.2,4,12.85,12.85,0,0,1,.56,5.78,24.43,24.43,0,0,1-1.48,5.93c0,.11-.2,0-.16-.08a18.37,18.37,0,0,0,1-5.5,16.53,16.53,0,0,0-.41-5.34,6.61,6.61,0,0,0-7.68-4.62A.1.1,0,0,1,305.7,119.59Z" style="fill:#263238"></path><path d="M291.83,115.62a26.67,26.67,0,0,1,6.89.81,19.54,19.54,0,0,1,6.13,2.4c.09.06,0,.21-.08.16a34.89,34.89,0,0,0-12.34-2.47c-3.89-.17-8.2.87-10.27,4.5,0,.06-.13,0-.1,0C283.8,117.27,288,115.72,291.83,115.62Z" style="fill:#263238"></path><path d="M297.21,144.82a5.57,5.57,0,0,1-5.62-5.49h0a5.55,5.55,0,1,1,5.62,5.49Zm-4.87-5.5a4.81,4.81,0,1,0,4.75-4.86,4.68,4.68,0,0,0-1.19.16A4.81,4.81,0,0,0,292.34,139.32Z" style="fill:#455a64"></path><path d="M285.6,146.47c-2.25.33-4.45-1.87-4.89-4.9a6.62,6.62,0,0,1,.61-4,3.46,3.46,0,0,1,5.86-.85,6.6,6.6,0,0,1,1.72,3.67c.41,2.87-.89,5.47-2.94,6ZM282,137.9a5.94,5.94,0,0,0-.52,3.56c.38,2.63,2.2,4.54,4.05,4.28s3-2.63,2.66-5.25a5.93,5.93,0,0,0-1.51-3.26,3,3,0,0,0-2.54-1l-.27.05A3,3,0,0,0,282,137.9Z" style="fill:#455a64"></path><path d="M291.87,139.94l.39-.63c-.93-.58-3-1.24-4.13.39l.61.42C289.75,138.66,291.78,139.89,291.87,139.94Z" style="fill:#455a64"></path><path d="M316.56,137.8l.6-.44c-.2-.28-2-2.75-3.69-2.77s-11.29,2.33-11.7,2.43l.18.72c2.78-.68,10.29-2.43,11.5-2.41S316.07,137.12,316.56,137.8Z" style="fill:#455a64"></path><path d="M307.75,139.37s2.46-6.33,5.24-5.58,1.85,9.28-.77,11.05a3,3,0,0,1-4.31-.62Z" style="fill:#f7a9a0"></path><path d="M312.66,136.23s.07,0,0,.07c-1.82,1.31-2.43,3.44-2.7,5.56a1.66,1.66,0,0,1,2.31-1,.06.06,0,0,1,0,.12,1.87,1.87,0,0,0-1.83,1.12,9.46,9.46,0,0,0-.56,1.83c-.05.2-.4.19-.38,0v-.05C308.84,141.25,310,137.16,312.66,136.23Z" style="fill:#263238"></path><path d="M299.84,164.41s.06,0,.05,0c-.44,3.36-1.25,11.18,3.89,11,2.08-.06,4.05-1.27,5.7-2.47a29,29,0,0,0,4.66-4.27,44.27,44.27,0,0,0,4.45-5.58c.06-.09.18,0,.12.1-1.36,2-2.52,4.06-4.06,5.91a26,26,0,0,1-5,4.74c-1.77,1.23-3.87,2.42-6.05,2.37a4.11,4.11,0,0,1-4-3.49A19.5,19.5,0,0,1,299.84,164.41Z" style="fill:#263238"></path></g></svg>